<?xml version="1.0" encoding="UTF-8"?>
<svg width="8px" height="10px" viewBox="0 0 8 10" version="1.1" xmlns="http://www.w3.org/2000/svg" xmlns:xlink="http://www.w3.org/1999/xlink">
    <title>refresh</title>
    <g id="Symbols" stroke="none" stroke-width="1" fill="none" fill-rule="evenodd">
        <g id="sidenav-content" transform="translate(-199, 0)" fill="currentColor" fill-rule="nonzero">
            <g id="Stack">
                <path d="M199,5.90019569 C199,8.16536204 200.788909,10 203.002385,10 C205.211091,10 207,8.16536204 207,5.90019569 C207,5.6555773 206.837806,5.47945205 206.599284,5.47945205 C206.370304,5.47945205 206.222421,5.6555773 206.222421,5.89530333 C206.222421,7.72015656 204.781753,9.19765166 203.002385,9.19765166 C201.223017,9.19765166 199.782349,7.72015656 199.782349,5.89530333 C199.782349,4.0704501 201.223017,2.59295499 203.002385,2.59295499 C203.326774,2.59295499 203.632081,2.61252446 203.880143,2.67123288 L202.577818,4.00195695 C202.501491,4.07534247 202.468098,4.17318982 202.468098,4.27592955 C202.468098,4.50097847 202.630292,4.67221135 202.844961,4.67221135 C202.964222,4.67221135 203.050089,4.63307241 203.121646,4.55968689 L204.982111,2.64677104 C205.063208,2.55870841 205.101371,2.46086106 205.101371,2.34833659 C205.101371,2.2407045 205.058438,2.13307241 204.982111,2.05479452 L203.126416,0.122309198 C203.05486,0.0391389432 202.959451,0 202.844961,0 C202.630292,0 202.468098,0.181017613 202.468098,0.406066536 C202.468098,0.508806262 202.501491,0.60665362 202.573047,0.684931507 L203.73703,1.87377691 C203.517591,1.82485323 203.259988,1.79549902 203.002385,1.79549902 C200.788909,1.79549902 199,3.63013699 199,5.90019569 Z" id="Path-Copy"></path>
            </g>
        </g>
    </g>
</svg>