<?xml version="1.0" encoding="UTF-8"?>
<svg width="15px" height="9px" viewBox="0 0 15 9" version="1.1" xmlns="http://www.w3.org/2000/svg" xmlns:xlink="http://www.w3.org/1999/xlink">
    <title>Shape</title>
    <g id="web" stroke="none" stroke-width="1" fill="none" fill-rule="evenodd">
        <g id="2025-Aug-projects" transform="translate(-1455, -311)" fill="currentColor" fill-rule="nonzero">
            <g id="Frame" transform="translate(249, 0)">
                <g id="project-setting-bar" transform="translate(264, 300)">
                    <g id="Stack-2" transform="translate(942, 8)">
                        <path d="M0.632154006,4.32353697 L14.3756504,4.32353697 C14.726847,4.32353697 15,4.04257218 15,3.6913662 C15,3.34016021 14.726847,3.067 14.3756504,3.067 L0.632154006,3.067 C0.280957336,3.067 0,3.34016021 0,3.6913662 C0,4.04257218 0.280957336,4.32353697 0.632154006,4.32353697 Z M2.16961498,8.13217077 L12.8694069,8.13217077 C13.2206035,8.13217077 13.4937565,7.85120599 13.4937565,7.5 C13.4937565,7.14879401 13.2206035,6.86782923 12.8694069,6.86782923 L2.16961498,6.86782923 C1.82622268,6.86782923 1.54526535,7.14879401 1.54526535,7.5 C1.54526535,7.85120599 1.82622268,8.13217077 2.16961498,8.13217077 Z M3.68366285,11.933 L11.355359,11.933 C11.7065557,11.933 11.987513,11.6520352 11.987513,11.3086338 C11.987513,10.9574278 11.7065557,10.676463 11.355359,10.676463 L3.68366285,10.676463 C3.33246618,10.676463 3.05931322,10.9574278 3.05931322,11.3086338 C3.05931322,11.6520352 3.33246618,11.933 3.68366285,11.933 Z" id="Shape"></path>
                    </g>
                </g>
            </g>
        </g>
    </g>
</svg>