<?xml version="1.0" encoding="UTF-8"?>
<svg width="16px" height="13px" viewBox="0 0 16 13" version="1.1" xmlns="http://www.w3.org/2000/svg" xmlns:xlink="http://www.w3.org/1999/xlink">
    <title>Shape</title>
    <defs>
        <path d="M18.5,0 L86.5,0 C96.7172679,-3.55271368e-15 105,8.28273213 105,18.5 C105,28.7172679 96.7172679,37 86.5,37 L18.5,37 C8.28273213,37 0,28.7172679 0,18.5 C0,8.28273213 8.28273213,0 18.5,0 Z" id="path-1"></path>
    </defs>
    <g id="Symbols" stroke="none" stroke-width="1" fill="none" fill-rule="evenodd">
        <g id="Tagmd-dark" transform="translate(-19.5, -11.5)" xlink:href="#path-1">
            <use fill="none" fill-rule="evenodd" xlink:href="#path-1"></use>
            <g id="Frame" transform="translate(20, 12)" fill="currentColor" fill-rule="nonzero">
                <path d="M1.34232955,5.66056832 L5.61789773,5.66056832 C6.51278409,5.66056832 6.953125,5.22022298 6.953125,4.29691824 L6.953125,1.35654774 C6.953125,0.44034534 6.51278409,0 5.61789773,0 L1.34232955,0 C0.447443182,0 0,0.44034534 0,1.35654774 L0,4.29691824 C0,5.22022298 0.447443182,5.66056832 1.34232955,5.66056832 Z M9.38210227,5.66056832 L13.6647727,5.66056832 C14.5596591,5.66056832 15,5.22022298 15,4.29691824 L15,1.35654774 C15,0.44034534 14.5596591,0 13.6647727,0 L9.38210227,0 C8.49431818,0 8.046875,0.44034534 8.046875,1.35654774 L8.046875,4.29691824 C8.046875,5.22022298 8.49431818,5.66056832 9.38210227,5.66056832 Z M1.34943182,4.66624014 C1.11505682,4.66624014 1.00142045,4.54550029 1.00142045,4.29691824 L1.00142045,1.35654774 C1.00142045,1.11506804 1.11505682,0.994328188 1.34943182,0.994328188 L5.60369318,0.994328188 C5.83806818,0.994328188 5.95170455,1.11506804 5.95170455,1.35654774 L5.95170455,4.29691824 C5.95170455,4.54550029 5.83806818,4.66624014 5.60369318,4.66624014 L1.34943182,4.66624014 Z M9.40340909,4.66624014 C9.16193182,4.66624014 9.04829545,4.54550029 9.04829545,4.29691824 L9.04829545,1.35654774 C9.04829545,1.11506804 9.16193182,0.994328188 9.40340909,0.994328188 L13.6576705,0.994328188 C13.8849432,0.994328188 13.9985795,1.11506804 13.9985795,1.35654774 L13.9985795,4.29691824 C13.9985795,4.54550029 13.8849432,4.66624014 13.6576705,4.66624014 L9.40340909,4.66624014 Z M1.34232955,12.422 L5.61789773,12.422 C6.51278409,12.422 6.953125,11.9816547 6.953125,11.0583499 L6.953125,8.11797942 C6.953125,7.19467467 6.51278409,6.75432933 5.61789773,6.75432933 L1.34232955,6.75432933 C0.447443182,6.75432933 0,7.19467467 0,8.11797942 L0,11.0583499 C0,11.9816547 0.447443182,12.422 1.34232955,12.422 Z M9.38210227,12.422 L13.6647727,12.422 C14.5596591,12.422 15,11.9816547 15,11.0583499 L15,8.11797942 C15,7.19467467 14.5596591,6.75432933 13.6647727,6.75432933 L9.38210227,6.75432933 C8.49431818,6.75432933 8.046875,7.19467467 8.046875,8.11797942 L8.046875,11.0583499 C8.046875,11.9816547 8.49431818,12.422 9.38210227,12.422 Z M1.34943182,11.4205695 C1.11505682,11.4205695 1.00142045,11.306932 1.00142045,11.0654523 L1.00142045,8.12508176 C1.00142045,7.87649971 1.11505682,7.75575986 1.34943182,7.75575986 L5.60369318,7.75575986 C5.83806818,7.75575986 5.95170455,7.87649971 5.95170455,8.12508176 L5.95170455,11.0654523 C5.95170455,11.306932 5.83806818,11.4205695 5.60369318,11.4205695 L1.34943182,11.4205695 Z M9.40340909,11.4205695 C9.16193182,11.4205695 9.04829545,11.306932 9.04829545,11.0654523 L9.04829545,8.12508176 C9.04829545,7.87649971 9.16193182,7.75575986 9.40340909,7.75575986 L13.6576705,7.75575986 C13.8849432,7.75575986 13.9985795,7.87649971 13.9985795,8.12508176 L13.9985795,11.0654523 C13.9985795,11.306932 13.8849432,11.4205695 13.6576705,11.4205695 L9.40340909,11.4205695 Z" id="Shape"></path>
            </g>
        </g>
    </g>
</svg>