<?xml version="1.0" encoding="UTF-8"?>
<svg width="22px" height="21px" viewBox="0 0 22 21" version="1.1" xmlns="http://www.w3.org/2000/svg" xmlns:xlink="http://www.w3.org/1999/xlink">
    <title>Shape</title>
    <g id="Symbols" stroke="none" stroke-width="1" fill="none" fill-rule="evenodd">
        <path d="M3.26367188,20.2714844 L13.0878906,20.2714844 C15.0214844,20.2714844 15.9980469,19.2851563 15.9980469,17.3222656 L15.9980469,12.8398438 L14.3964844,12.8398438 L14.3964844,17.2734375 C14.3964844,18.171875 13.9179688,18.6699219 12.9804688,18.6699219 L3.37109375,18.6699219 C2.43359375,18.6699219 1.95507813,18.171875 1.95507813,17.2734375 L1.95507813,3.39648438 C1.95507813,2.49804688 2.43359375,1.99023438 3.37109375,1.99023438 L12.9804688,1.99023438 C13.9179688,1.99023438 14.3964844,2.49804688 14.3964844,3.39648438 L14.3964844,7.8203125 L15.9980469,7.8203125 L15.9980469,3.33789063 C15.9980469,1.39453125 15.0214844,0.3984375 13.0878906,0.3984375 L3.26367188,0.3984375 C1.33007813,0.3984375 0.353515625,1.39453125 0.353515625,3.33789063 L0.353515625,17.3222656 C0.353515625,19.2851563 1.33007813,20.2714844 3.26367188,20.2714844 Z M8.36132812,10.3300781 C8.36132812,10.75 8.71289062,11.1015625 9.12304688,11.1015625 L18.4785156,11.1015625 L19.8554687,11.0429688 L19.2988281,11.5507812 L17.8144531,12.9375 C17.6582031,13.0742188 17.5800781,13.2792969 17.5800781,13.4648437 C17.5800781,13.8652344 17.8632812,14.1679688 18.2539062,14.1679688 C18.4589844,14.1679688 18.6152344,14.0898438 18.7617188,13.9433594 L21.6914062,10.8964844 C21.8867188,10.7011719 21.9550781,10.5253906 21.9550781,10.3300781 C21.9550781,10.125 21.8867188,9.95898438 21.6914062,9.75390625 L18.7617188,6.71679688 C18.6152344,6.5703125 18.4589844,6.48242188 18.2539062,6.48242188 C17.8632812,6.48242188 17.5800781,6.78515625 17.5800781,7.18554688 C17.5800781,7.37109375 17.6582031,7.57617188 17.8144531,7.71289063 L19.2988281,9.109375 L19.8554687,9.6171875 L18.4785156,9.55859375 L9.12304688,9.55859375 C8.71289062,9.55859375 8.36132812,9.91015625 8.36132812,10.3300781 Z" id="Shape" fill="#979797" fill-rule="nonzero"></path>
    </g>
</svg>