<?xml version="1.0" encoding="UTF-8"?>
<svg width="20px" height="19px" viewBox="0 0 23 21" version="1.1" xmlns="http://www.w3.org/2000/svg" xmlns:xlink="http://www.w3.org/1999/xlink">
    <title>home-shape</title>
    <defs>
        <path d="M0,0 L22.2265625,0 L22.2265625,19.5507812 L0,19.5507812 L0,0 Z" id="path-1"></path>
    </defs>
    <g id="home-shape" stroke="none" fill="none" transform="translate(0.3535, 0.5547)" xlink:href="#path-1" fill-rule="nonzero">
        <path d="M0.849609375,9.98046875 C1.11328125,9.98046875 1.34765625,9.83398438 1.54296875,9.66796875 L2.734375,8.66210937 L2.734375,17.4609375 C2.734375,18.7792969 3.52539062,19.5507812 4.86328125,19.5507812 L17.3632812,19.5507812 C18.7109375,19.5507812 19.4921875,18.7792969 19.4921875,17.4609375 L19.4921875,8.66210937 L20.6933594,9.66796875 C20.8886719,9.83398438 21.1132813,9.98046875 21.3867187,9.98046875 C21.9140625,9.98046875 22.2265625,9.59960938 22.2265625,9.18945312 C22.2265625,8.96484375 22.1289063,8.72070312 21.9140625,8.54492187 L19.4921875,6.51367187 L19.4921875,2.734375 C19.4921875,2.32421875 19.2285156,2.0703125 18.828125,2.0703125 L17.7539062,2.0703125 C17.3535156,2.0703125 17.0800781,2.32421875 17.0800781,2.734375 L17.0800781,4.48242187 L12.2851563,0.458984375 C11.9238281,0.146484375 11.5136719,0 11.1132812,0 C10.7128906,0 10.3125,0.146484375 9.95117187,0.458984375 L0.322265625,8.54492187 C0.09765625,8.72070312 0,8.96484375 0,9.18945312 C0,9.59960938 0.322265625,9.98046875 0.849609375,9.98046875 Z M13.7890625,12.5390625 C13.7890625,12.109375 13.515625,11.8359375 13.0859375,11.8359375 L9.15039062,11.8359375 C8.73046875,11.8359375 8.4375,12.109375 8.4375,12.5390625 L8.4375,17.9492188 L5.234375,17.9492188 C4.6484375,17.9492188 4.3359375,17.6269531 4.3359375,17.03125 L4.3359375,7.32421875 L10.7714844,1.92382812 C10.8789062,1.82617188 11.0058594,1.78710938 11.1132812,1.78710938 C11.2304688,1.78710938 11.3574219,1.82617188 11.4648438,1.92382812 L17.9003906,7.32421875 L17.9003906,17.03125 C17.9003906,17.6269531 17.578125,17.9492188 16.9921875,17.9492188 L13.7890625,17.9492188 L13.7890625,12.5390625 Z" id="Shape" fill="currentColor"></path>
    </g>
</svg>