<?xml version="1.0" encoding="UTF-8"?>
<svg width="15px" height="16px" viewBox="0 0 15 16" version="1.1" xmlns="http://www.w3.org/2000/svg" xmlns:xlink="http://www.w3.org/1999/xlink">
    <title>Shape</title>
    <g id="Symbols" stroke="none" stroke-width="1" fill="none" fill-rule="evenodd">
        <g id="DarkSwitch" transform="translate(-35, 0)" fill="currentColor" fill-rule="nonzero">
            <path d="M42.5,15.081 C46.6408669,15.081 50,11.7218669 50,7.581 C50,3.44013313 46.6408669,0.081 42.5,0.081 C38.3591331,0.081 35,3.44013313 35,7.581 C35,11.7218669 38.3591331,15.081 42.5,15.081 Z M42.5,13.7574706 C39.0866873,13.7574706 36.3312693,10.9943127 36.3312693,7.581 C36.3312693,4.16768731 39.0866873,1.40452941 42.5,1.40452941 C45.9133127,1.40452941 48.6764706,4.16768731 48.6764706,7.581 C48.6764706,10.9943127 45.9133127,13.7574706 42.5,13.7574706 Z M42.4458204,5.08873994 C42.9876161,5.08873994 43.4055728,4.65530341 43.4055728,4.12124768 C43.4055728,3.57945201 42.9876161,3.15375542 42.4458204,3.15375542 C41.9117647,3.15375542 41.4783282,3.57945201 41.4783282,4.12124768 C41.4783282,4.65530341 41.9117647,5.08873994 42.4458204,5.08873994 Z M41.2229102,11.6599474 L44.1950464,11.6599474 C44.496904,11.6599474 44.7368421,11.4354892 44.7368421,11.1258916 C44.7368421,10.831774 44.496904,10.5995759 44.1950464,10.5995759 L43.3126935,10.5995759 L43.3126935,6.96180495 C43.3126935,6.55158824 43.1114551,6.2806904 42.7244582,6.2806904 L41.3467492,6.2806904 C41.0371517,6.2806904 40.7972136,6.51288854 40.7972136,6.80700619 C40.7972136,7.11660372 41.0371517,7.34106192 41.3467492,7.34106192 L42.1130031,7.34106192 L42.1130031,10.5995759 L41.2229102,10.5995759 C40.9133127,10.5995759 40.6733746,10.831774 40.6733746,11.1258916 C40.6733746,11.4354892 40.9133127,11.6599474 41.2229102,11.6599474 Z" id="Shape"></path>
        </g>
    </g>
</svg>