<?xml version="1.0" encoding="UTF-8"?>
<svg width="15px" height="15px" viewBox="0 0 19 19" version="1.1" xmlns="http://www.w3.org/2000/svg" xmlns:xlink="http://www.w3.org/1999/xlink">
    <title>Shape</title>
    <g id="Symbols" stroke="none" stroke-width="1" fill="none" fill-rule="evenodd">
        <g id="SideTool-dark" transform="translate(-161, -20)" fill="currentColor" fill-rule="nonzero">
            <g id="nav-button-search" transform="translate(140, 0)">
                <path d="M21.1289062,27.6113281 C21.1289062,31.703125 24.4492188,35.0332031 28.5410156,35.0332031 C30.1230469,35.0332031 31.578125,34.5351562 32.7792969,33.6855469 L37.2324219,38.1386719 C37.4570312,38.3632813 37.7597656,38.4707031 38.0722656,38.4707031 C38.7558594,38.4707031 39.234375,37.9628906 39.234375,37.2988281 C39.234375,36.9765625 39.1171875,36.6835938 38.9121094,36.46875 L34.4882812,32.0253906 C35.4160156,30.7949219 35.9628906,29.2714844 35.9628906,27.6113281 C35.9628906,23.5195313 32.6425781,20.1894531 28.5410156,20.1894531 C24.4492188,20.1894531 21.1289062,23.5195313 21.1289062,27.6113281 Z M22.8183594,27.6113281 C22.8183594,24.4472656 25.3769531,21.8886719 28.5410156,21.8886719 C31.7050781,21.8886719 34.2734375,24.4472656 34.2734375,27.6113281 C34.2734375,30.7753906 31.7050781,33.3339844 28.5410156,33.3339844 C25.3769531,33.3339844 22.8183594,30.7753906 22.8183594,27.6113281 Z" id="Shape"></path>
            </g>
        </g>
    </g>
</svg>