<?xml version="1.0" encoding="UTF-8"?>
<svg width="21px" height="15px" viewBox="0 0 21 15" version="1.1" xmlns="http://www.w3.org/2000/svg" xmlns:xlink="http://www.w3.org/1999/xlink">
    <title>Shape</title>
    <g id="Symbols" stroke="none" stroke-width="1" fill="none" fill-rule="evenodd">
        <path d="M10.3535156,8.3616738 C10.6150675,8.3616738 10.8766194,8.24833465 11.1381712,8.02165636 L19.3857737,0.750514249 C18.9324171,0.462807187 18.4180318,0.33203125 17.7205601,0.33203125 L2.98647116,0.33203125 C2.2889995,0.33203125 1.77461414,0.462807187 1.32125756,0.750514249 L9.56886,8.02165636 C9.83041188,8.24833465 10.0919638,8.3616738 10.3535156,8.3616738 Z M0.57147552,13.2526938 L6.67435259,7.14981678 L0.554038729,1.75312977 C0.458136375,1.93621608 0.353515625,2.35469908 0.353515625,2.9301132 L0.353515625,12.0321184 C0.353515625,12.5552222 0.440699583,12.94755 0.57147552,13.2526938 Z M20.1355557,13.2526938 C20.2663317,12.94755 20.3535156,12.5552222 20.3535156,12.0321184 L20.3535156,2.9301132 C20.3535156,2.35469908 20.2488949,1.93621608 20.1529925,1.75312977 L14.0326787,7.14981678 L20.1355557,13.2526938 Z M2.75107447,14.6302004 L17.9559568,14.6302004 C18.5662445,14.6302004 19.0370379,14.4907061 19.3509001,14.2727462 L13.0649367,7.99550117 L11.8879533,9.03299027 C11.3997231,9.46891006 10.8853378,9.68686996 10.3535156,9.68686996 C9.82169348,9.68686996 9.30730813,9.46891006 8.81907796,9.03299027 L7.63337613,7.99550117 L1.35613114,14.2727462 C1.66999339,14.4907061 2.14078677,14.6302004 2.75107447,14.6302004 Z" id="Shape" fill="currentColor" fill-rule="nonzero"></path>
    </g>
</svg>