<?xml version="1.0" encoding="UTF-8"?>
<svg width="19px" height="15px" viewBox="0 0 19 15" version="1.1" xmlns="http://www.w3.org/2000/svg" xmlns:xlink="http://www.w3.org/1999/xlink">
    <title>Shape</title>
    <g id="Symbols" stroke="none" stroke-width="1" fill="none" fill-rule="evenodd">
        <g id="SideNav-dark" transform="translate(-219, -21)" fill="currentColor" fill-rule="nonzero">
            <g id="Stack-4" transform="translate(21, 16)">
                <path d="M200.568487,20 L214.440018,20 C216.141003,20 217,19.1423671 217,17.4442539 L217,7.54716981 C217,5.85763293 216.141003,5 214.440018,5 L200.568487,5 C198.867502,5 198,5.85763293 198,7.54716981 L198,17.4442539 C198,19.1423671 198.867502,20 200.568487,20 Z M200.611012,18.6020583 C199.828559,18.6020583 199.394808,18.1818182 199.394808,17.3584906 L199.394808,7.64150943 C199.394808,6.81818182 199.828559,6.39794168 200.611012,6.39794168 L204.217099,6.39794168 L204.217099,18.6020583 L200.611012,18.6020583 Z M214.397493,6.39794168 C215.171441,6.39794168 215.613697,6.81818182 215.613697,7.64150943 L215.613697,17.3584906 C215.613697,18.1818182 215.171441,18.6020583 214.397493,18.6020583 L205.560877,18.6020583 L205.560877,6.39794168 L214.397493,6.39794168 Z M202.660698,9.39108062 C202.924351,9.39108062 203.145479,9.16809605 203.145479,8.9193825 C203.145479,8.66209262 202.924351,8.44768439 202.660698,8.44768439 L200.968218,8.44768439 C200.704566,8.44768439 200.483438,8.66209262 200.483438,8.9193825 C200.483438,9.16809605 200.704566,9.39108062 200.968218,9.39108062 L202.660698,9.39108062 Z M202.660698,11.5180103 C202.924351,11.5180103 203.145479,11.2950257 203.145479,11.0377358 C203.145479,10.780446 202.924351,10.5660377 202.660698,10.5660377 L200.968218,10.5660377 C200.704566,10.5660377 200.483438,10.780446 200.483438,11.0377358 C200.483438,11.2950257 200.704566,11.5180103 200.968218,11.5180103 L202.660698,11.5180103 Z M202.660698,13.6363636 C202.924351,13.6363636 203.145479,13.4219554 203.145479,13.1646655 C203.145479,12.915952 202.924351,12.6929674 202.660698,12.6929674 L200.968218,12.6929674 C200.704566,12.6929674 200.483438,12.915952 200.483438,13.1646655 C200.483438,13.4219554 200.704566,13.6363636 200.968218,13.6363636 L202.660698,13.6363636 Z" id="Shape"></path>
            </g>
        </g>
    </g>
</svg>