<?xml version="1.0" encoding="UTF-8"?>
<svg width="15px" height="13px" viewBox="0 0 15 13" version="1.1" xmlns="http://www.w3.org/2000/svg" xmlns:xlink="http://www.w3.org/1999/xlink">
    <title>Shape</title>
    <g id="web" stroke="none" stroke-width="1" fill="none" fill-rule="evenodd">
        <g id="2025-Aug-projects" transform="translate(-1491, -309)" fill="currentColor" fill-rule="nonzero">
            <g id="Frame" transform="translate(249, 0)">
                <g id="project-setting-bar" transform="translate(264, 300)">
                    <g id="Stack-2" transform="translate(942, 8)">
                        <path d="M39.3983849,1.70160995 L36.1951548,4.97441141 C36.0740242,5.09537738 36,5.270106 36,5.41795329 C36,5.77413087 36.2489906,6.0160628 36.5989233,6.0160628 C36.7671602,6.0160628 36.9017497,5.96230015 37.0161507,5.84805451 L38.3418573,4.47710688 L39.3041723,3.36153184 L39.2503365,4.79296246 L39.2503365,12.890962 C39.2503365,13.2404192 39.4993271,13.4957918 39.8492598,13.4957918 C40.2059219,13.4957918 40.4549125,13.2404192 40.4549125,12.890962 L40.4549125,4.79296246 L40.3943472,3.36153184 L41.3633917,4.47710688 L42.6890983,5.84805451 C42.7967699,5.96230015 42.9313594,6.0160628 43.1063257,6.0160628 C43.4562584,6.0160628 43.705249,5.77413087 43.705249,5.41795329 C43.705249,5.270106 43.6312248,5.09537738 43.5100942,4.97441141 L40.3001346,1.70160995 C40.051144,1.43951702 39.6608345,1.43279668 39.3983849,1.70160995 Z M47.6016151,13.3009022 L50.8115747,10.0146601 C50.9259758,9.90041444 51,9.72568582 51,9.57111819 C51,9.21494062 50.7510094,8.97300868 50.4010767,8.97300868 C50.2328398,8.97300868 50.0982503,9.03349167 49.9838493,9.1477373 L48.6648721,10.5119646 L47.6958277,11.63426 L47.756393,10.196109 L47.756393,2.10482984 C47.756393,1.7553726 47.5006729,1.5 47.1507402,1.5 C46.8008075,1.5 46.5450875,1.7553726 46.5450875,2.10482984 L46.5450875,10.196109 L46.6056528,11.63426 L45.6366083,10.5119646 L44.3176312,9.1477373 C44.2032301,9.03349167 44.0686406,8.97300868 43.8936743,8.97300868 C43.5437416,8.97300868 43.3014805,9.21494062 43.3014805,9.57111819 C43.3014805,9.72568582 43.3755047,9.90041444 43.4899058,10.0146601 L46.6998654,13.3009022 C46.948856,13.5629951 47.345895,13.5697155 47.6016151,13.3009022 Z" id="Shape"></path>
                    </g>
                </g>
            </g>
        </g>
    </g>
</svg>